<?xml version="1.0" standalone="no"?>
<!DOCTYPE svg PUBLIC "-//W3C//DTD SVG 20010904//EN"
 "http://www.w3.org/TR/2001/REC-SVG-20010904/DTD/svg10.dtd">
<svg version="1.0" xmlns="http://www.w3.org/2000/svg"
 width="900.000000pt" height="680.000000pt" viewBox="0 0 900.000000 680.000000"
 preserveAspectRatio="xMidYMid meet">

<g transform="translate(0.000000,680.000000) scale(0.100000,-0.100000)"
fill="#000000" stroke="none">
<path d="M4314 4643 c-176 -151 -497 -470 -678 -673 -152 -170 -336 -386 -336
-393 0 -3 35 6 78 20 371 119 768 171 1217 160 390 -10 695 -57 1028 -161 42
-13 77 -22 77 -20 0 21 -488 537 -686 726 -190 181 -525 468 -547 468 -2 0
-72 -57 -153 -127z m181 -33 c4 -6 -7 -10 -25 -10 -18 0 -29 4 -25 10 3 6 15
10 25 10 10 0 22 -4 25 -10z m3 -27 c-16 -2 -40 -2 -55 0 -16 2 -3 4 27 4 30
0 43 -2 28 -4z m47 -25 c14 -6 25 -15 25 -19 0 -4 8 -10 18 -12 9 -3 -38 -5
-105 -4 -68 1 -123 5 -123 8 0 13 32 19 103 21 l72 2 -70 6 -70 6 62 2 c34 1
74 -3 88 -10z m88 -62 c31 -24 18 -28 -75 -24 -51 3 -75 2 -53 -1 31 -4 18 -7
-55 -11 -84 -6 -76 -6 69 -8 l163 -2 40 -31 c29 -24 36 -34 26 -40 -9 -6 -8
-9 7 -9 11 0 36 -14 55 -32 19 -17 57 -52 83 -76 l49 -44 -36 4 c-20 2 -36 0
-36 -4 0 -4 19 -8 43 -8 40 -1 48 -6 150 -105 59 -58 105 -105 101 -105 -4 0
1 -7 12 -16 18 -14 16 -15 -24 -10 -52 8 -209 17 -167 10 17 -3 77 -11 133
-19 85 -12 107 -19 122 -38 13 -16 15 -24 7 -29 -8 -5 -4 -8 9 -8 11 0 31 -12
45 -26 l24 -26 -100 7 c-55 4 -98 5 -95 2 3 -3 52 -10 110 -16 72 -8 109 -17
120 -27 14 -15 12 -16 -15 -11 -17 3 -71 8 -120 11 l-90 5 127 -22 c70 -12
130 -26 135 -31 9 -10 -12 -8 -257 28 -96 14 -224 29 -285 35 -170 14 -685 6
-845 -13 -74 -9 -169 -19 -210 -21 -41 -3 -95 -8 -120 -11 -60 -8 -48 2 26 21
52 13 54 14 14 10 -25 -3 -56 -8 -70 -11 -23 -5 -24 -4 -7 9 10 9 49 23 85 32
37 9 74 20 82 25 29 18 1 21 -56 6 -32 -8 -60 -14 -61 -12 -9 9 37 46 67 55
29 8 31 9 10 10 -48 3 2 18 125 39 103 18 219 31 390 45 28 3 22 4 -20 5 -58
2 -229 -16 -383 -38 -40 -6 -77 -10 -82 -8 -6 2 42 55 104 118 l114 115 94 12
93 12 -85 -5 -85 -5 90 91 c51 51 98 90 110 91 12 0 15 3 7 6 -27 10 19 43 62
44 30 2 34 3 14 6 -35 5 -35 11 -1 40 24 22 35 23 162 23 97 -1 141 -4 154
-14z"/>
<path d="M4404 4400 c-132 -87 -121 -405 17 -473 171 -83 286 280 140 444 -30
34 -44 42 -81 45 -34 4 -53 0 -76 -16z m109 -141 c67 -30 91 -178 42 -251 -35
-51 -58 -62 -92 -44 -31 16 -65 50 -82 83 -30 59 1 163 61 202 39 24 40 24 71
10z"/>
<path d="M4238 4223 c12 -2 30 -2 40 0 9 3 -1 5 -23 4 -22 0 -30 -2 -17 -4z"/>
<path d="M4738 4223 c23 -2 59 -2 80 0 20 2 1 4 -43 4 -44 0 -61 -2 -37 -4z"/>
<path d="M4633 4013 c9 -2 23 -2 30 0 6 3 -1 5 -18 5 -16 0 -22 -2 -12 -5z"/>
<path d="M4718 4003 c23 -2 59 -2 80 0 20 2 1 4 -43 4 -44 0 -61 -2 -37 -4z"/>
<path d="M4883 3993 c15 -2 37 -2 50 0 12 2 0 4 -28 4 -27 0 -38 -2 -22 -4z"/>
<path d="M4903 4547 c-35 -17 -63 -34 -63 -38 0 -4 68 -72 151 -151 208 -197
749 -782 749 -809 0 -5 -26 1 -57 12 -90 31 -365 96 -498 118 -469 77 -996 72
-1450 -15 -140 -27 -289 -63 -397 -96 -37 -11 -72 -18 -77 -16 -5 1 44 67 109
146 66 78 118 142 116 142 -2 0 -70 -32 -151 -71 l-146 -72 -63 -81 c-34 -45
-82 -109 -106 -142 l-42 -62 22 -76 c13 -42 26 -79 30 -81 3 -2 51 19 105 47
54 28 125 62 157 75 l59 24 17 -21 17 -21 94 31 c329 107 630 154 996 154 372
0 678 -48 1005 -159 58 -19 110 -35 117 -35 7 0 18 11 25 25 l13 24 125 -52
c69 -29 134 -58 145 -64 18 -10 24 -5 62 55 41 66 41 67 25 95 -38 64 -256
346 -382 494 -127 149 -555 587 -617 631 l-28 20 -62 -31z"/>
<path d="M3618 4507 c-230 -54 -261 -59 -283 -47 -22 12 -27 11 -45 -5 -11
-10 -32 -43 -46 -73 -24 -51 -25 -57 -10 -68 9 -6 36 -15 60 -18 42 -7 45 -9
70 -67 15 -32 30 -57 34 -55 4 2 18 25 31 49 l25 45 -22 58 c-12 32 -19 60
-17 63 3 2 100 26 217 52 117 27 223 51 236 54 17 4 22 11 17 24 -3 11 -1 22
5 26 14 9 13 25 -2 24 -7 0 -129 -28 -270 -62z"/>
<path d="M4075 3439 c-126 -22 -241 -45 -254 -52 -35 -17 -61 -66 -61 -112 0
-22 23 -157 50 -300 28 -142 50 -271 50 -285 0 -15 -7 -47 -16 -73 -17 -49
-23 -52 -155 -73 -37 -6 -41 -5 -36 12 4 10 9 31 12 45 5 21 18 30 68 47 60
21 60 22 17 15 -25 -3 -58 -7 -75 -8 -21 -1 -35 -11 -50 -33 -13 -21 -25 -30
-35 -26 -23 10 -127 17 -153 10 -13 -3 -39 -16 -59 -29 l-35 -24 -1 29 c-1 41
-27 77 -67 94 -57 23 -74 15 -20 -10 64 -29 77 -46 75 -93 -3 -57 -2 -58 23
-36 56 52 117 57 198 16 65 -34 108 -91 116 -154 l5 -44 -20 31 c-24 38 -75
78 -125 99 l-36 15 24 -46 c14 -26 25 -54 24 -63 0 -9 -10 7 -23 34 -28 62
-41 73 -100 84 l-48 9 30 -32 c40 -42 52 -68 52 -111 0 -56 -26 -100 -91 -152
-33 -27 -62 -58 -65 -70 -8 -29 -13 -29 -55 0 -53 35 -59 79 -25 165 22 55 27
81 24 130 -3 58 -2 63 22 71 22 8 19 10 -20 9 -25 0 -58 3 -75 7 l-30 7 33
-21 c66 -42 77 -129 26 -191 -37 -43 -57 -52 -148 -60 -45 -4 -89 -10 -98 -14
-13 -6 -18 -4 -18 10 0 9 -3 15 -6 11 -4 -3 -4 -18 0 -32 5 -21 10 -24 26 -15
32 17 45 12 24 -11 -24 -27 -25 -111 -1 -156 10 -18 14 -33 9 -33 -14 0 -35
50 -42 100 l-7 45 -27 -58 c-19 -40 -29 -80 -33 -132 -4 -53 -10 -75 -19 -75
-17 0 -44 -51 -44 -81 0 -22 0 -22 23 -3 35 31 114 84 125 84 5 0 17 -11 26
-25 29 -44 106 -81 106 -50 0 7 16 34 35 59 19 26 35 50 35 54 0 4 -15 19 -34
34 -63 50 -94 159 -67 231 13 32 68 45 87 20 18 -24 17 -36 -1 -29 -23 8 -19
-36 6 -68 11 -14 35 -34 52 -43 19 -9 27 -18 19 -21 -7 -2 -31 8 -54 23 l-41
27 7 -33 c3 -19 18 -58 32 -88 l27 -53 29 50 29 50 57 -34 c46 -28 65 -34 102
-32 l45 3 1 78 c1 43 4 80 7 83 8 9 65 -24 81 -47 14 -20 15 -19 21 24 8 52 0
111 -20 147 l-13 24 -11 -41 c-6 -22 -19 -47 -28 -54 -16 -13 -16 -12 0 11 9
13 17 42 17 63 0 57 24 45 66 -33 20 -36 28 -56 20 -46 -15 19 -16 18 -16 -21
0 -23 -3 -50 -6 -60 -3 -12 1 -10 13 7 38 53 64 70 147 95 47 14 86 30 86 36
0 14 -10 11 -78 -16 -34 -14 -64 -25 -67 -25 -3 0 -5 12 -5 28 0 15 -4 42 -9
60 l-10 33 35 -7 c32 -6 34 -4 34 20 l0 26 40 -20 c55 -28 80 -55 80 -86 0
-23 3 -25 26 -20 15 4 39 10 55 13 18 3 37 19 54 44 14 22 32 39 40 39 8 0 15
2 15 4 0 2 -36 186 -80 409 -44 222 -80 420 -80 440 0 45 17 83 44 100 28 18
366 72 399 63 30 -7 65 -40 77 -73 9 -22 25 -137 80 -565 37 -293 37 -288 5
-288 l-25 0 20 -20 c11 -11 20 -27 20 -36 0 -8 5 -12 10 -9 6 3 13 -1 16 -10
5 -12 10 -8 23 17 31 60 61 73 170 73 89 0 103 -3 157 -30 47 -25 65 -41 91
-84 18 -30 34 -58 35 -62 2 -5 18 -12 37 -15 29 -6 33 -5 28 10 -12 30 11 66
55 86 57 26 88 26 88 1 0 -27 15 -34 30 -16 21 25 28 17 28 -34 0 -26 5 -58
12 -70 10 -20 10 -22 -7 -13 -10 5 -58 24 -106 41 -86 30 -88 30 -85 10 2 -18
18 -25 88 -44 172 -44 193 -53 219 -95 14 -22 28 -37 33 -34 4 3 8 -1 8 -8 0
-8 5 -6 11 5 5 9 27 26 48 37 l39 19 6 -68 c4 -37 4 -74 1 -83 -12 -30 36 -7
87 42 51 50 56 49 34 -5 -15 -35 -31 -51 -19 -18 6 14 2 14 -23 -3 -16 -12
-38 -26 -49 -33 -17 -10 -13 -11 25 -6 25 4 67 20 94 36 27 16 49 28 51 27 1
-2 11 -17 22 -33 12 -17 23 -41 25 -55 3 -21 10 -13 41 49 20 40 37 87 37 103
l0 30 -35 -31 c-20 -17 -43 -31 -53 -31 -10 0 -4 8 18 21 46 28 70 58 70 91 0
20 -4 26 -15 22 -18 -7 -19 5 -2 28 17 21 63 13 82 -15 22 -31 19 -113 -6
-164 -12 -24 -38 -58 -60 -75 l-38 -30 40 -53 c21 -28 39 -58 39 -65 0 -10 3
-10 14 0 13 10 29 47 53 120 4 12 7 11 13 -5 5 -11 9 -29 9 -40 l0 -20 -9 20
c-7 15 -9 16 -9 4 -1 -9 -12 -33 -26 -53 -29 -42 -19 -47 24 -10 21 18 35 23
44 17 6 -5 39 -31 71 -57 56 -44 61 -46 73 -30 7 10 13 29 12 43 0 37 -23 96
-36 94 -6 -1 -13 27 -16 68 -4 45 -15 90 -33 127 l-27 57 -7 -40 c-6 -38 -38
-111 -45 -103 -2 2 5 28 16 58 20 59 17 103 -9 133 -22 24 -7 33 23 13 18 -12
25 -13 25 -4 0 24 -42 40 -126 48 -68 6 -90 12 -118 34 -72 55 -71 164 3 213
39 26 38 27 -8 13 -19 -5 -60 -7 -92 -3 l-59 6 0 43 c0 39 4 46 38 68 20 14
51 28 67 32 34 8 55 22 55 37 0 5 -8 3 -17 -6 -10 -8 -38 -20 -62 -27 -58 -15
-104 -63 -99 -102 4 -27 4 -27 -16 -13 -60 43 -133 56 -206 35 -27 -8 -36 -7
-43 5 -15 28 -57 70 -55 55 4 -20 -12 -18 -152 13 -145 32 -357 59 -435 55
-47 -2 -18 -8 135 -25 107 -13 246 -32 307 -44 111 -21 112 -22 98 -42 -8 -12
-15 -34 -15 -49 0 -24 -3 -28 -22 -23 -196 44 -311 65 -348 64 -25 -1 -37 -3
-27 -6 28 -7 21 -48 -14 -77 -39 -33 -111 -53 -220 -61 -84 -6 -86 -6 -92 17
-9 31 -8 163 2 213 4 22 4 58 0 81 -4 22 -26 168 -49 324 -26 182 -47 294 -58
312 -15 26 -85 69 -108 67 -5 -1 -112 -19 -239 -40z m923 -859 c9 -5 64 -23
120 -40 102 -31 104 -32 97 -57 -8 -32 -22 -44 -100 -83 -101 -51 -170 -38
-201 37 -20 46 -10 84 29 122 35 35 32 34 55 21z m611 -34 c20 -19 38 -26 67
-26 21 0 44 -4 50 -8 6 -4 11 -36 11 -72 -1 -50 6 -80 27 -129 33 -78 30 -118
-15 -155 -37 -31 -55 -33 -64 -6 -3 11 -32 41 -63 66 -77 63 -92 87 -92 154 0
57 18 96 56 125 17 13 15 14 -21 8 -48 -7 -81 -34 -106 -88 -9 -22 -18 -33
-18 -25 0 8 8 34 19 58 10 23 16 42 12 42 -23 0 -115 -66 -137 -97 l-25 -38 0
30 c0 42 37 112 76 141 75 58 175 66 223 20z m-1739 -87 c17 -45 30 -85 28
-89 -4 -12 -152 37 -177 58 -11 9 -22 28 -23 41 -3 21 5 26 62 47 36 12 68 23
72 23 3 1 21 -35 38 -80z m1530 -153 c0 -3 -4 -8 -10 -11 -5 -3 -10 -1 -10 4
0 6 5 11 10 11 6 0 10 -2 10 -4z m60 -6 c0 -5 -4 -10 -9 -10 -16 0 -41 -79
-43 -133 l-2 -52 -3 48 c-4 44 -6 47 -21 35 -15 -12 -16 -11 -1 12 9 14 26 44
38 68 20 39 41 56 41 32z m-2430 -86 c0 -8 -4 -14 -9 -14 -11 0 -22 26 -14 34
9 9 23 -3 23 -20z m2940 -4 c-6 -11 -13 -20 -15 -20 -3 0 -5 9 -5 20 0 11 7
20 15 20 13 0 14 -4 5 -20z m-2609 -98 c-7 -2 -18 1 -23 6 -8 8 -4 9 13 5 13
-4 18 -8 10 -11z m2274 -2 c-11 -5 -29 -8 -40 -8 -16 0 -15 2 5 8 34 11 60 11
35 0z m-2222 -7 c-7 -2 -19 -2 -25 0 -7 3 -2 5 12 5 14 0 19 -2 13 -5z m-20
-84 c48 -35 35 -39 -16 -5 -29 20 -35 21 -31 8 2 -9 -2 -3 -10 13 -21 41 -20
66 0 37 9 -13 34 -37 57 -53z m-342 -147 c11 -24 14 -40 8 -36 -6 3 -20 25
-30 48 -13 28 -19 35 -20 21 0 -12 -3 -15 -6 -7 -3 7 -2 25 2 40 l7 27 10 -25
c5 -14 19 -44 29 -68z"/>
<path d="M4824 3415 c-50 -39 -61 -82 -68 -260 -8 -180 -1 -210 61 -251 29
-19 207 -53 219 -41 2 2 -37 10 -88 17 -84 11 -95 15 -127 47 l-34 34 5 148
c9 247 26 260 291 227 173 -22 191 -51 151 -260 -31 -165 -29 -160 -65 -191
-23 -18 -43 -25 -77 -26 l-47 -1 40 -8 c42 -9 99 1 126 23 33 25 49 66 75 187
37 175 41 246 15 287 -32 50 -69 63 -229 79 -199 19 -211 18 -248 -11z"/>
<path d="M4091 3311 c-139 -25 -156 -30 -177 -55 -14 -15 -24 -40 -24 -57 0
-17 23 -151 51 -297 28 -147 60 -321 71 -387 12 -66 22 -121 23 -123 2 -2 52
6 111 17 60 12 160 25 223 31 63 5 115 11 117 13 3 3 -31 294 -61 517 -2 19
-12 91 -20 159 -17 130 -30 170 -67 195 -30 21 -64 19 -247 -13z m127 -144
c64 -58 69 -195 9 -245 -28 -23 -91 -25 -119 -2 -54 42 -76 156 -43 220 31 61
103 73 153 27z m182 -306 c0 -11 -5 -23 -11 -27 -15 -9 -4 -70 15 -90 9 -8 16
-20 16 -25 0 -18 -42 -9 -61 14 -20 24 -26 92 -9 102 6 3 10 15 10 26 0 12 7
19 20 19 13 0 20 -7 20 -19z"/>
<path d="M4127 3159 c-41 -24 -60 -113 -36 -176 12 -32 47 -73 63 -73 5 0 -3
13 -18 28 -54 57 -55 148 -1 206 25 27 22 33 -8 15z"/>
<path d="M4868 3324 c-49 -26 -58 -59 -61 -220 l-2 -145 31 -28 c26 -23 47
-30 151 -45 111 -17 123 -17 151 -2 43 22 51 41 79 185 28 141 25 176 -15 215
-26 24 -42 28 -153 41 -150 18 -147 18 -181 -1z m116 -123 c-1 -29 -6 -57 -11
-62 -5 -5 -29 -5 -53 -1 -43 7 -45 9 -45 41 0 30 5 37 44 58 25 13 50 22 55
20 6 -2 10 -27 10 -56z m154 19 c44 -32 48 -42 32 -86 -10 -25 -14 -26 -56
-21 -26 2 -50 10 -54 17 -7 11 4 92 15 111 9 14 19 11 63 -21z m-170 -205 c4
-59 -13 -78 -63 -67 -38 7 -40 9 -43 51 -4 57 7 69 60 62 42 -6 43 -7 46 -46z
m183 4 c3 -6 3 -27 -2 -48 -5 -20 -9 -39 -9 -43 0 -12 -68 -10 -91 3 -16 8
-19 17 -14 47 11 65 11 65 62 58 26 -3 50 -11 54 -17z"/>
<path d="M3350 2834 c0 -5 7 -17 15 -28 8 -10 17 -38 21 -61 l6 -43 41 24 c24
13 59 24 80 24 20 0 37 5 37 11 0 12 -93 8 -120 -4 -11 -5 -21 3 -34 28 -20
36 -46 65 -46 49z"/>
<path d="M5590 2790 c-20 -32 -29 -40 -45 -35 -40 13 -115 18 -115 8 0 -6 18
-13 40 -16 22 -3 58 -14 80 -26 l40 -21 0 28 c0 15 9 44 19 65 25 50 12 47
-19 -3z"/>
<path d="M4583 2733 c15 -2 37 -2 50 0 12 2 0 4 -28 4 -27 0 -38 -2 -22 -4z"/>
<path d="M3176 2705 c4 -8 11 -15 16 -15 6 0 5 6 -2 15 -7 8 -14 15 -16 15 -2
0 -1 -7 2 -15z"/>
<path d="M3808 2673 c7 -3 16 -2 19 1 4 3 -2 6 -13 5 -11 0 -14 -3 -6 -6z"/>
<path d="M4788 2613 c7 -3 16 -2 19 1 4 3 -2 6 -13 5 -11 0 -14 -3 -6 -6z"/>
<path d="M2954 2541 c13 -24 14 -36 6 -51 -6 -11 -7 -20 -2 -20 10 0 57 49 51
53 -2 2 -19 14 -37 27 l-34 23 16 -32z"/>
<path d="M5998 2541 l-37 -28 30 -22 c22 -17 40 -21 72 -18 l42 4 -43 1 c-50
2 -60 18 -37 61 8 17 14 31 13 30 -2 0 -20 -13 -40 -28z"/>
<path d="M6045 2406 c8 -20 15 -53 15 -76 0 -33 7 -47 39 -80 37 -38 61 -50
61 -31 0 5 -16 30 -35 55 -19 26 -35 53 -35 61 0 19 -36 91 -50 100 -5 3 -3
-10 5 -29z"/>
<path d="M2917 2403 c-8 -16 -17 -45 -21 -65 -4 -21 -13 -41 -20 -45 -17 -10
-61 -83 -50 -83 4 0 27 20 51 45 38 40 43 51 43 91 0 25 5 54 10 65 6 10 8 19
6 19 -3 0 -12 -12 -19 -27z"/>
<path d="M4373 2413 c15 -2 37 -2 50 0 12 2 0 4 -28 4 -27 0 -38 -2 -22 -4z"/>
<path d="M4315 2389 c-112 -9 -243 -35 -264 -53 -16 -12 -75 -136 -68 -142 2
-3 35 3 73 12 101 23 267 44 358 44 l79 0 -7 38 c-14 85 -26 112 -49 111 -12
-1 -67 -5 -122 -10z"/>
<path d="M4545 2357 c-20 -29 -19 -47 4 -47 11 0 106 -9 211 -21 106 -11 199
-19 208 -17 12 2 11 8 -9 30 -21 24 -39 29 -149 47 -69 11 -153 22 -188 24
-55 5 -64 3 -77 -16z"/>
<path d="M4501 2334 c0 -11 3 -14 6 -6 3 7 2 16 -1 19 -3 4 -6 -2 -5 -13z"/>
<path d="M4512 2280 c0 -14 2 -19 5 -12 2 6 2 18 0 25 -3 6 -5 1 -5 -13z"/>
<path d="M4380 2229 c-170 -12 -445 -63 -435 -80 3 -4 29 -1 58 7 98 25 281
53 400 60 65 4 120 11 123 15 3 5 -5 8 -18 8 -13 -1 -70 -5 -128 -10z"/>
<path d="M2763 2129 c-13 -5 -23 -16 -23 -24 0 -12 6 -15 23 -9 28 8 29 10 25
27 -2 11 -9 12 -25 6z"/>
<path d="M2705 2032 c-55 -19 -102 -36 -104 -38 -4 -4 29 -84 34 -84 1 0 22 7
45 15 58 20 58 20 62 -24 l3 -39 52 35 c45 30 51 38 43 53 -6 11 -16 41 -23
68 l-12 50 -100 -36z"/>
<path d="M6155 1993 c-19 -65 -17 -81 13 -101 21 -14 22 -13 22 18 0 21 4 31
13 28 6 -3 36 -13 65 -22 l52 -18 0 -77 c0 -77 1 -79 40 -124 22 -25 50 -47
62 -49 26 -4 117 -148 118 -186 0 -13 4 -20 10 -17 7 4 8 66 4 182 -8 194 -12
184 54 136 l32 -24 1 -122 c1 -86 4 -109 9 -77 3 25 25 83 48 130 l41 85 -47
42 c-26 23 -64 51 -84 63 l-36 20 -12 -35 c-6 -19 -17 -35 -23 -35 -7 0 -37
13 -68 29 l-57 29 18 40 18 40 -56 22 c-32 12 -94 35 -139 50 l-82 28 -16 -55z"/>
<path d="M4590 2033 c0 -13 -66 -53 -104 -64 -20 -5 -36 -15 -36 -21 0 -16 70
0 107 25 33 22 61 67 43 67 -6 0 -10 -3 -10 -7z"/>
<path d="M2387 2004 c-4 -4 -7 -15 -7 -25 0 -16 3 -17 25 -7 14 6 24 16 22 22
-4 13 -30 19 -40 10z"/>
<path d="M6500 1990 c0 -9 31 -30 44 -30 3 0 6 9 6 20 0 15 -7 20 -25 20 -14
0 -25 -4 -25 -10z"/>
<path d="M4187 1944 c-15 -13 -39 -24 -52 -24 -13 0 -27 -4 -30 -10 -9 -15 42
-12 74 5 25 12 47 42 39 51 -2 1 -16 -9 -31 -22z"/>
<path d="M2330 1875 c-58 -30 -116 -57 -130 -61 -23 -6 -24 -5 -10 11 13 16
11 17 -20 13 -34 -3 -35 -2 -38 35 -3 36 -14 45 -39 29 -18 -12 -4 -62 18 -62
13 0 25 -13 36 -42 10 -24 37 -83 61 -133 44 -88 48 -102 51 -157 0 -16 6 -28
11 -28 6 0 10 50 10 130 l0 129 46 32 46 31 -4 -156 c-1 -86 -2 -156 -1 -156
0 0 22 36 48 79 42 73 49 80 84 86 25 4 49 18 68 38 28 29 31 40 36 119 l6 87
-56 -20 c-30 -10 -59 -17 -63 -14 -4 2 -13 18 -20 35 -7 16 -18 30 -24 30 -6
-1 -58 -25 -116 -55z"/>
<path d="M6802 1908 c-20 -20 -15 -65 7 -71 27 -7 31 0 31 45 0 39 -15 49 -38
26z"/>
<path d="M6735 1830 c13 -15 22 -17 29 -10 12 12 -8 30 -33 30 -11 0 -10 -5 4
-20z"/>
<path d="M4386 1785 c-3 -8 -26 -25 -51 -37 -41 -20 -65 -48 -29 -34 9 3 20 6
24 6 13 0 80 60 80 71 0 15 -17 10 -24 -6z"/>
<path d="M4707 1664 c-15 -13 -46 -27 -68 -30 -23 -4 -39 -12 -39 -20 0 -33
109 2 130 42 18 33 10 37 -23 8z"/>
<path d="M4371 1526 c-6 -7 -49 -26 -96 -42 -47 -16 -85 -34 -85 -41 0 -18 14
-16 97 8 67 20 113 48 113 69 0 16 -18 20 -29 6z"/>
<path d="M2050 1475 c0 -8 2 -15 4 -15 2 0 6 7 10 15 3 8 1 15 -4 15 -6 0 -10
-7 -10 -15z"/>
<path d="M2273 1378 c4 -29 7 -63 7 -74 0 -15 8 -23 25 -26 23 -5 25 -2 25 32
0 66 -11 97 -37 109 l-26 12 6 -53z"/>
<path d="M4821 1419 c-1 -18 -65 -79 -81 -79 -6 0 -10 -7 -10 -15 0 -8 -9 -19
-19 -25 -25 -13 -122 -13 -156 0 -16 6 -24 6 -20 0 17 -27 140 -38 207 -18 52
15 136 108 99 108 -5 0 -12 10 -14 23 -2 12 -5 15 -6 6z"/>
<path d="M6603 1418 c-21 -10 -23 -18 -23 -79 0 -62 1 -67 20 -62 11 3 20 13
21 22 0 9 4 42 8 74 4 31 5 57 2 56 -4 0 -16 -5 -28 -11z"/>
<path d="M6750 1411 c0 -6 4 -13 10 -16 6 -3 7 1 4 9 -7 18 -14 21 -14 7z"/>
<path d="M2456 1283 c-6 -14 -5 -15 5 -6 7 7 10 15 7 18 -3 3 -9 -2 -12 -12z"/>
<path d="M2733 1263 c4 -21 7 -56 7 -79 0 -39 1 -40 38 -42 l38 -3 -4 73 c-2
40 -5 74 -6 74 0 1 -19 5 -40 8 l-39 7 6 -38z"/>
<path d="M6125 1293 c-29 -8 -35 -21 -35 -90 l0 -63 29 0 c17 0 32 3 35 8 2 4
8 40 11 80 8 76 8 77 -40 65z"/>
<path d="M6430 1291 c0 -6 4 -13 10 -16 6 -3 7 1 4 9 -7 18 -14 21 -14 7z"/>
<path d="M2577 1261 c-4 -17 -3 -21 5 -13 5 5 8 16 6 23 -3 8 -7 3 -11 -10z"/>
<path d="M6310 1261 c0 -5 5 -13 10 -16 6 -3 10 -2 10 4 0 5 -4 13 -10 16 -5
3 -10 2 -10 -4z"/>
<path d="M4422 1222 c-16 -27 -96 -69 -151 -78 -25 -4 -41 -12 -41 -20 0 -14
-48 -20 -115 -15 -38 4 -101 36 -114 58 -14 23 -14 7 -1 -18 28 -50 138 -77
251 -60 125 19 197 70 187 134 l-3 22 -13 -23z"/>
<path d="M3297 1152 c6 -86 17 -102 70 -102 32 0 33 1 33 43 0 82 -11 117 -36
122 -13 3 -35 7 -48 10 l-24 5 5 -78z"/>
<path d="M5595 1224 c-5 -1 -27 -5 -47 -9 l-38 -6 0 -79 c0 -76 1 -80 23 -80
59 1 64 6 72 92 7 83 6 87 -10 82z"/>
<path d="M2967 1183 c-4 -3 -7 -13 -7 -22 1 -13 3 -13 11 2 11 19 8 33 -4 20z"/>
<path d="M5930 1176 c0 -8 4 -17 9 -20 5 -4 7 3 4 14 -6 23 -13 26 -13 6z"/>
<path d="M3126 1154 c-4 -9 -4 -19 -1 -22 2 -3 7 3 11 12 4 9 4 19 1 22 -2 3
-7 -3 -11 -12z"/>
<path d="M5760 1161 c0 -5 7 -15 17 -22 15 -13 15 -12 4 9 -12 23 -21 28 -21
13z"/>
<path d="M3586 1114 c-4 -9 -4 -19 -1 -22 2 -3 7 3 11 12 4 9 4 19 1 22 -2 3
-7 -3 -11 -12z"/>
<path d="M5300 1121 c0 -5 7 -15 17 -22 15 -13 15 -12 4 9 -12 23 -21 28 -21
13z"/>
<path d="M5131 1103 c-1 -12 4 -25 9 -28 12 -7 12 2 0 30 -8 19 -9 19 -9 -2z"/>
<path d="M3757 1089 c-4 -16 -3 -18 9 -8 16 13 19 29 5 29 -5 0 -11 -9 -14
-21z"/>
<path d="M4898 1062 c-7 -27 -58 -58 -130 -80 -42 -12 -58 -22 -58 -34 0 -28
-90 -23 -165 7 -52 21 -57 22 -35 5 34 -27 142 -60 195 -60 51 0 173 43 204
71 24 22 27 66 8 94 -13 17 -14 17 -19 -3z"/>
<path d="M6761 954 c0 -11 3 -14 6 -6 3 7 2 16 -1 19 -3 4 -6 -2 -5 -13z"/>
<path d="M4427 915 c-10 -29 -82 -73 -133 -81 -28 -4 -44 -11 -44 -20 0 -10
-16 -14 -60 -14 -68 0 -122 19 -162 57 -25 24 -26 24 -21 4 13 -50 111 -91
217 -91 140 0 243 64 219 137 -9 25 -10 26 -16 8z"/>
<path d="M2278 893 c12 -2 30 -2 40 0 9 3 -1 5 -23 4 -22 0 -30 -2 -17 -4z"/>
<path d="M2718 893 c12 -2 30 -2 40 0 9 3 -1 5 -23 4 -22 0 -30 -2 -17 -4z"/>
<path d="M3268 893 c12 -2 30 -2 40 0 9 3 -1 5 -23 4 -22 0 -30 -2 -17 -4z"/>
<path d="M3863 893 c9 -2 23 -2 30 0 6 3 -1 5 -18 5 -16 0 -22 -2 -12 -5z"/>
<path d="M5013 893 c9 -2 25 -2 35 0 9 3 1 5 -18 5 -19 0 -27 -2 -17 -5z"/>
<path d="M5598 893 c12 -2 32 -2 45 0 12 2 2 4 -23 4 -25 0 -35 -2 -22 -4z"/>
<path d="M6148 893 c12 -2 30 -2 40 0 9 3 -1 5 -23 4 -22 0 -30 -2 -17 -4z"/>
<path d="M6588 893 c12 -2 30 -2 40 0 9 3 -1 5 -23 4 -22 0 -30 -2 -17 -4z"/>
<path d="M2264 843 c2 -16 8 -59 11 -97 l7 -68 35 5 c20 4 36 7 38 9 1 2 -2
42 -8 91 l-9 87 -40 0 c-38 0 -39 -1 -34 -27z"/>
<path d="M2703 838 c3 -18 9 -88 13 -154 3 -67 10 -127 14 -134 14 -22 70 19
70 51 0 15 4 29 8 31 14 5 1 148 -13 148 -7 0 -16 19 -19 45 -7 44 -8 45 -43
45 -34 0 -35 -1 -30 -32z"/>
<path d="M3253 813 c4 -32 12 -125 18 -208 6 -82 13 -152 15 -154 2 -2 18 0
36 5 30 9 33 14 36 52 3 34 7 42 23 42 21 0 24 28 13 114 -6 39 -10 46 -29 46
-26 0 -35 22 -35 87 0 62 -7 73 -47 73 l-36 0 6 -57z"/>
<path d="M3846 808 c-3 -35 -9 -129 -13 -211 l-8 -147 31 0 c31 0 31 0 37 63
3 34 6 128 7 210 l1 147 -25 0 c-23 0 -25 -4 -30 -62z"/>
<path d="M5004 748 c3 -68 5 -162 6 -210 l0 -88 35 0 34 0 -4 83 c-3 45 -8
139 -11 210 l-6 127 -30 0 -30 0 6 -122z"/>
<path d="M5575 803 c-8 -89 -10 -93 -40 -93 -25 0 -25 -1 -25 -80 0 -75 1 -80
21 -80 19 0 21 -4 15 -40 -5 -32 -3 -41 13 -50 23 -12 61 -13 61 -2 1 4 3 30
5 57 20 220 25 285 25 318 0 36 -1 37 -34 37 l-34 0 -7 -67z"/>
<path d="M6130 841 c0 -39 -9 -61 -26 -61 -11 0 -14 -18 -14 -75 0 -47 4 -75
11 -75 6 0 8 -11 5 -27 -5 -25 -1 -31 32 -50 l39 -22 7 102 c3 56 9 132 12
170 l7 67 -37 0 c-33 0 -36 -2 -36 -29z"/>
<path d="M6566 853 c-3 -10 -8 -50 -12 -89 -6 -69 -6 -71 17 -77 51 -14 52
-13 64 116 l7 67 -36 0 c-24 0 -36 -5 -40 -17z"/>
<path d="M2516 763 c-6 -14 -5 -15 5 -6 7 7 10 15 7 18 -3 3 -9 -2 -12 -12z"/>
<path d="M6370 771 c0 -6 4 -13 10 -16 6 -3 7 1 4 9 -7 18 -14 21 -14 7z"/>
<path d="M6260 746 c0 -8 4 -17 9 -20 5 -4 7 3 4 14 -6 23 -13 26 -13 6z"/>
<path d="M2630 735 c0 -8 2 -15 4 -15 2 0 6 7 10 15 3 8 1 15 -4 15 -6 0 -10
-7 -10 -15z"/>
<path d="M4632 709 c-13 -16 -41 -33 -63 -39 -21 -6 -39 -15 -39 -20 0 -13
-86 -13 -111 0 -11 6 -19 7 -19 1 0 -17 68 -41 119 -41 94 0 163 50 144 103
l-8 24 -23 -28z"/>
<path d="M3002 660 c0 -14 2 -19 5 -12 2 6 2 18 0 25 -3 6 -5 1 -5 -13z"/>
<path d="M5890 666 c0 -8 4 -17 9 -20 5 -4 7 3 4 14 -6 23 -13 26 -13 6z"/>
<path d="M3157 641 c-4 -17 -3 -21 5 -13 5 5 8 16 6 23 -3 8 -7 3 -11 -10z"/>
<path d="M5730 648 c0 -9 5 -20 10 -23 13 -8 13 5 0 25 -8 13 -10 13 -10 -2z"/>
<path d="M4267 615 c-15 -14 -45 -30 -67 -36 -22 -7 -40 -18 -40 -26 0 -29
-101 -3 -142 37 -28 29 -36 24 -18 -11 14 -24 73 -55 126 -63 29 -5 55 -2 96
14 67 25 80 39 76 79 l-3 30 -28 -24z"/>
<path d="M3596 604 c-4 -9 -4 -19 -1 -22 2 -3 7 3 11 12 4 9 4 19 1 22 -2 3
-7 -3 -11 -12z"/>
<path d="M5290 611 c0 -5 7 -15 17 -22 15 -13 15 -12 4 9 -12 23 -21 28 -21
13z"/>
<path d="M3760 578 c-12 -22 -12 -22 6 -6 10 10 15 20 12 24 -4 3 -12 -5 -18
-18z"/>
<path d="M4820 588 c0 -9 -15 -28 -32 -42 -18 -14 -41 -33 -52 -42 -13 -11
-29 -15 -55 -11 -33 6 -34 5 -17 -8 42 -31 149 -13 178 29 12 18 9 51 -7 72
-12 16 -14 17 -15 2z"/>
<path d="M5130 586 c0 -8 4 -17 9 -20 5 -4 7 3 4 14 -6 23 -13 26 -13 6z"/>
</g>
</svg>
